<?xml version="1.0" encoding="UTF-8"?>
<svg width="1160.3px" height="106.4px" style="background:rgba(0, 0, 0, 0)" preserveAspectRatio="xMidYMid" viewBox="-330.16 21.8 1160.3 106.4" xmlns="http://www.w3.org/2000/svg">
<defs>
<filter id="a" x="-100%" y="-100%" width="300%" height="300%">
<feFlood flood-color="#ddd" flood-opacity=".75" result="COLOR-blu"/>
<feFlood flood-color="#666" flood-opacity=".4" result="COLOR-red"/>
<feTurbulence baseFrequency=".05" numOctaves="3" result="Texture_10" type="fractalNoise"/>
<feColorMatrix in="Texture_10" result="Texture_20" values="0 0 0 0 0,     0 0 0 0 0,     0 0 0 0 0,     0 0 0 -2.1 1.1"/>
<feColorMatrix in="Texture_10" result="Texture_30" values="0 0 0 0 0,     0 0 0 0 0,     0 0 0 0 0,     0 0 0 -1.7 1.8"/>
<feOffset dx="-3" dy="4" in="SourceAlpha" result="FILL_10"/>
<feDisplacementMap in="FILL_10" in2="Texture_10" result="FILL_20" scale="17"/>
<feComposite in="Texture_30" in2="FILL_20" operator="in" result="FILL_40"/>
<feComposite in="COLOR-blu" in2="FILL_40" operator="in" result="FILL_50"/>
<feMorphology in="SourceGraphic" operator="dilate" radius="3" result="OUTLINE_10"/>
<feComposite in="OUTLINE_10" in2="SourceGraphic" operator="out" result="OUTLINE_20"/>
<feDisplacementMap in="OUTLINE_20" in2="Texture_10" result="OUTLINE_30" scale="7"/>
<feComposite in="Texture_20" in2="OUTLINE_30" k2="-1" k3="1" operator="arithmetic" result="OUTLINE_40"/>
<feConvolveMatrix divisor="1" in="SourceGraphic" kernelMatrix="1 0 0 0 0 0 0 0 0 1 0 0 0 0 0 0 0 0 1 0 0 0 0 0 0 0 0 1 0 0 0 0 0 0 0 0 1 0 0 0 0 0 0 0 0 1 0 0 0 0 0 0 0 0 1 0 0 0 0 0 0 0 0 1 " order="8,8" result="BEVEL_10"/>
<feMorphology in="BEVEL_10" operator="dilate" radius="2" result="BEVEL_20"/>
<feComposite in="BEVEL_20" in2="BEVEL_10" operator="out" result="BEVEL_30"/>
<feDisplacementMap in="BEVEL_30" in2="Texture_10" result="BEVEL_40" scale="7"/>
<feComposite in="Texture_20" in2="BEVEL_40" k2="-1" k3="1" operator="arithmetic" result="BEVEL_50"/>
<feOffset dx="-7" dy="-7" in="BEVEL_50" result="BEVEL_60"/>
<feComposite in="BEVEL_60" in2="OUTLINE_10" operator="out" result="BEVEL_70"/>
<feOffset dx="-9" dy="-9" in="BEVEL_10" result="BEVEL-FILL_10"/>
<feComposite in="BEVEL-FILL_10" in2="OUTLINE_10" operator="out" result="BEVEL-FILL_20"/>
<feDisplacementMap in="BEVEL-FILL_20" in2="Texture_10" result="BEVEL-FILL_30" scale="17"/>
<feComposite in="COLOR-red" in2="BEVEL-FILL_30" operator="in" result="BEVEL-FILL_50"/>
<feMerge result="merge2">
<feMergeNode in="BEVEL-FILL_50"/>
<feMergeNode in="BEVEL_70"/>
<feMergeNode in="FILL_50"/>
<feMergeNode in="OUTLINE_40"/>
</feMerge>
</filter>
</defs>
<g filter="url(#a)">
<g transform="translate(-167.27 96.095)">
<path d="m29.06-29.13q0 5.91-3.68 8.79-3.69 2.87-10.35 2.87h-9.22v17.47h-4.28v-40.78h13.44q6.72 0 10.41 2.92 3.68 2.92 3.68 8.73zm-4.28 0q0-4.21-2.65-6.1-2.66-1.9-7.1-1.9h-9.22v16h9.22q4.44 0 7.1-1.89 2.65-1.89 2.65-6.11zm39.6 16.07h-25.16q0.47 4.62 3.37 7.37 2.91 2.75 7.57 2.75 3.28 0 5.84-1.34 2.56-1.35 3.84-3.35l3 2.07q-2.18 3.06-5.21 4.67-3.04 1.61-7.47 1.61-3.38 0-6.19-1.13-2.81-1.12-4.86-3.14-2.05-2.01-3.17-4.79-1.13-2.79-1.13-6.19 0-3.31 1.02-6.11 1.01-2.8 2.94-4.84 1.92-2.05 4.67-3.19t6.15-1.14q3.72 0 6.5 1.25 2.79 1.25 4.64 3.45 1.86 2.2 2.75 5.27 0.9 3.06 0.9 6.78zm-25.1-3.66h20.56q-0.71-4.78-3.46-7.12-2.75-2.35-6.79-2.35-2.06 0-3.81 0.67-1.75 0.68-3.09 1.93-1.35 1.25-2.25 3.01-0.91 1.77-1.16 3.86zm59.53-11.81-1.4 3.5q-2.32-1.16-5.5-1.16-2.63 0-4.69 1.13-2.06 1.12-3.5 2.95t-2.2 4.19q-0.77 2.36-0.77 4.86v9.4h6.59v3.66h-17.46v-3.66h6.59v-21.81h-6.59v-3.66h10.87v7.32q2.94-8 11.16-8 2.22 0 3.86 0.28t3.04 1zm34.35 20.47q0 2.56-1.28 4.25-1.29 1.68-3.3 2.68-2.02 1-4.5 1.43-2.49 0.42-4.86 0.42-3.97 0-7.91-1.16-3.93-1.15-6.81-3.03l1.91-3.69q3.22 2.03 6.34 3.13 3.13 1.09 6.47 1.09 9.66 0 9.66-5 0-1.22-0.8-1.98-0.8-0.77-2.14-1.25-1.35-0.49-3.08-0.77t-3.64-0.53q-2.44-0.34-4.84-0.81-2.41-0.47-4.4-1.41-1.98-0.94-3.18-2.5-1.21-1.56-1.21-4.12 0-2.19 1.11-3.78 1.11-1.6 2.97-2.66t4.36-1.56 5.19-0.5q3.84 0 6.87 0.89 3.04 0.89 5.47 2.54l-1.72 3.35q-2.5-1.75-5.06-2.45-2.56-0.71-5.56-0.71-1.34 0-2.99 0.24-1.64 0.23-3.04 0.81-1.41 0.58-2.36 1.5t-0.95 2.33q0 1.22 0.79 1.95 0.8 0.73 2.14 1.22 1.35 0.48 3.08 0.76 1.74 0.29 3.64 0.54 2.38 0.34 4.8 0.81t4.4 1.37q1.99 0.91 3.21 2.47t1.22 4.13zm36.47-6.41q0 3.41-1.08 6.19t-3.1 4.76q-2.01 1.99-4.82 3.11-2.82 1.13-6.29 1.13-3.4 0-6.21-1.13-2.82-1.12-4.83-3.11-2.02-1.98-3.1-4.76-1.07-2.78-1.07-6.19 0-3.31 1.07-6.17 1.08-2.86 3.1-4.88 2.01-2.01 4.83-3.15 2.81-1.14 6.21-1.14 3.47 0 6.29 1.14 2.81 1.14 4.82 3.15 2.02 2.02 3.1 4.88t1.08 6.17zm-4.29 0q0-2.5-0.73-4.61t-2.17-3.7q-1.44-1.6-3.49-2.5-2.04-0.91-4.61-0.91-2.56 0-4.61 0.91-2.04 0.9-3.45 2.5-1.4 1.59-2.14 3.7-0.73 2.11-0.73 4.61t0.73 4.61q0.74 2.11 2.14 3.64 1.41 1.53 3.45 2.41 2.05 0.87 4.61 0.87 2.57 0 4.61-0.87 2.05-0.88 3.49-2.41t2.17-3.64 0.73-4.61zm36.94-3.5v17.97h-4.31v-17.97q0-3.91-1.69-6.06-1.69-2.16-5.47-2.16-2.37 0-4.29 1.1-1.93 1.09-3.27 2.92t-2.05 4.19q-0.7 2.35-0.7 4.92v13.06h-4.28v-29.13h4.28v7.32q3.09-8 11.03-8 10.75 0 10.75 11.84zm7.28 10.09q0-2.75 1.38-4.6 1.37-1.86 3.61-2.94 2.23-1.08 5.12-1.56 2.89-0.49 5.89-0.49 1.16 0 2.08 0.03t1.75 0.1q0.83 0.06 1.67 0.15 0.85 0.1 1.85 0.22v-2.09q0-2.13-0.93-3.5-0.92-1.38-2.26-2.17-1.34-0.8-2.81-1.13t-2.5-0.33q-3.25 0-6 0.88-2.75 0.87-5.13 2.34l-1.94-3.22q2.63-1.59 5.89-2.61 3.27-1.01 7.18-1.01 2.37 0 4.67 0.61t4.12 1.87q1.83 1.27 2.93 3.33 1.09 2.06 1.09 4.94v19.06h-4.31v-4.88q-1.13 1.41-2.55 2.47-1.42 1.07-2.98 1.74-1.57 0.67-3.13 1.03t-2.97 0.36q-5.78 0-8.75-2.22t-2.97-6.38zm11.72 4.94q2.69 0 4.83-0.79 2.14-0.8 3.64-1.99t2.33-2.53 0.83-2.44v-2.75q-2.1-0.31-4.02-0.34t-3.33-0.03q-2.31 0-4.45 0.31t-3.73 1.02q-1.6 0.7-2.57 1.82-0.97 1.13-0.97 2.78 0 1.85 1.8 3.4 1.8 1.54 5.64 1.54zm46.56-0.72v3.66h-17.46v-3.66h6.59v-33.47h-6.59v-3.65h10.9v37.12h6.56zm74.69-6.97q0 2.57-1.06 4.65-1.06 2.07-2.84 3.57-1.79 1.5-4.1 2.32-2.31 0.81-4.81 0.81-3.44 0-6.31-1.28-2.88-1.28-4.57-3.78v4.34h-3.62v-12.41h3.62q0 2.1 0.97 3.83 0.97 1.74 2.47 2.99t3.45 1.95q1.96 0.7 3.99 0.7 1.81 0 3.34-0.51 1.53-0.52 2.69-1.47 1.16-0.96 1.83-2.33 0.67-1.38 0.67-3.13 0-1.96-0.86-3.37t-2.31-2.41-3.27-1.7q-1.81-0.7-3.68-1.39-2.22-0.78-4.44-1.64t-3.97-2.17q-1.75-1.32-2.84-3.21-1.1-1.89-1.1-4.7 0-2.5 1.06-4.45 1.07-1.96 2.79-3.3 1.71-1.34 4-2.05 2.28-0.7 4.68-0.7 2.97 0 5.49 1.22 2.51 1.22 3.92 3.72v-4.25h3.78v11.65h-3.78q0-1.84-0.77-3.45-0.76-1.61-2.07-2.75-1.32-1.14-3-1.81-1.69-0.67-3.57-0.67-1.65 0-3.15 0.37-1.5 0.38-2.63 1.21-1.12 0.82-1.8 2.14-0.67 1.31-0.67 3.12 0 1.59 0.8 2.72 0.8 1.12 2.14 1.98t3.11 1.57q1.77 0.7 3.61 1.42 2.31 0.81 4.59 1.81t4.1 2.41q1.81 1.4 2.97 3.45 1.15 2.05 1.15 4.98zm32.69 0.57 3.59 0.78q-0.5 4.59-3.61 7.3-3.11 2.7-7.76 2.7-2.56 0-4.69-0.85-2.12-0.84-3.62-2.34t-2.33-3.61-0.83-4.61v-14.78h-6.59v-3.66h6.59v-11.65h4.28v11.65h12.41v3.66h-12.41v14.78q0 1.6 0.52 3 0.51 1.41 1.43 2.47 0.93 1.06 2.24 1.67t3 0.61q3.19 0 5.33-1.98 2.14-1.99 2.45-5.14zm10.62-1.07v-18h4.29v18q0 3.91 1.7 6.05t5.48 2.14q2.38 0 4.28-1.09 1.91-1.1 3.25-2.92 1.35-1.83 2.05-4.19t0.7-4.92v-13.07h4.32v29.13h-4.32v-7.28q-3.06 8-11 8-10.75 0-10.75-11.85zm61-29.65v40.78h-4.31v-2.69q-1.84 1.66-4.05 2.53-2.2 0.88-4.51 0.88-3.47 0-6.22-1.13-2.75-1.12-4.64-3.14-1.89-2.01-2.91-4.83-1.01-2.81-1.01-6.15 0-3.31 1.01-6.14 1.02-2.83 2.91-4.85 1.89-2.01 4.64-3.15t6.22-1.14q2.31 0 4.51 0.83 2.21 0.82 4.05 2.48v-10.63h-5.81v-3.65h10.12zm-4.31 34v-15.56q-1.84-2.04-4.01-2.94-2.18-0.91-4.61-0.91-2.57 0-4.52 0.91-1.95 0.9-3.26 2.47-1.32 1.56-1.99 3.67t-0.67 4.61 0.67 4.61 1.99 3.67q1.31 1.56 3.26 2.47 1.95 0.9 4.52 0.9 4.93 0 8.62-3.9zm41.1-6.28h-25.16q0.47 4.62 3.37 7.37 2.91 2.75 7.57 2.75 3.28 0 5.84-1.34 2.56-1.35 3.84-3.35l3 2.07q-2.18 3.06-5.21 4.67-3.04 1.61-7.47 1.61-3.38 0-6.19-1.13-2.81-1.12-4.86-3.14-2.05-2.01-3.17-4.79-1.13-2.79-1.13-6.19 0-3.31 1.02-6.11 1.01-2.8 2.94-4.84 1.92-2.05 4.67-3.19t6.15-1.14q3.72 0 6.5 1.25 2.79 1.25 4.64 3.45 1.86 2.2 2.75 5.27 0.9 3.06 0.9 6.78zm-25.1-3.66h20.56q-0.71-4.78-3.46-7.12-2.75-2.35-6.79-2.35-2.06 0-3.81 0.67-1.75 0.68-3.09 1.93-1.35 1.25-2.25 3.01-0.91 1.77-1.16 3.86zm58.19-1.25v17.97h-4.31v-17.97q0-3.91-1.69-6.06-1.69-2.16-5.47-2.16-2.37 0-4.3 1.1-1.92 1.09-3.26 2.92-1.35 1.83-2.05 4.19-0.7 2.35-0.7 4.92v13.06h-4.28v-29.13h4.28v7.32q3.09-8 11.03-8 10.75 0 10.75 11.84zm33.19 7.91 3.59 0.78q-0.5 4.59-3.61 7.3-3.11 2.7-7.76 2.7-2.57 0-4.69-0.85-2.13-0.84-3.63-2.34t-2.33-3.61q-0.82-2.11-0.82-4.61v-14.78h-6.6v-3.66h6.6v-11.65h4.28v11.65h12.4v3.66h-12.4v14.78q0 1.6 0.51 3 0.52 1.41 1.44 2.47t2.24 1.67q1.31 0.61 3 0.61 3.18 0 5.32-1.98 2.14-1.99 2.46-5.14zm61.56-30.72 13.56 40.78h-4.59l-3.85-11.66h-16.12l-3.78 11.66h-4.6l13.57-40.78h5.81zm-9.78 25.34h13.69l-6.85-21.03-6.84 21.03zm52.22 7.81 3 2.07q-1.85 2.87-5.05 4.58-3.2 1.7-7.61 1.7-3.41 0-6.25-1.13-2.84-1.12-4.86-3.14-2.01-2.01-3.14-4.79-1.12-2.79-1.12-6.19 0-3.31 1.03-6.14t2.93-4.85q1.91-2.01 4.68-3.15 2.76-1.14 6.14-1.14 1.34 0 2.75 0.31 1.4 0.31 2.65 0.95t2.25 1.53 1.5 2.11v-4.22h3.85v11.66h-3.85q0-1.94-0.7-3.53t-1.92-2.75-2.91-1.8-3.62-0.64q-2.63 0-4.58 0.91-1.95 0.9-3.27 2.47-1.31 1.56-1.98 3.67t-0.67 4.61 0.76 4.61q0.77 2.11 2.22 3.64t3.5 2.44q2.05 0.9 4.61 0.9 3.25 0 5.78-1.28t3.88-3.41zm34.93 0 3 2.07q-1.84 2.87-5.04 4.58-3.21 1.7-7.61 1.7-3.41 0-6.25-1.13-2.85-1.12-4.86-3.14-2.02-2.01-3.14-4.79-1.13-2.79-1.13-6.19 0-3.31 1.03-6.14 1.04-2.83 2.94-4.85 1.91-2.01 4.67-3.15 2.77-1.14 6.14-1.14 1.35 0 2.75 0.31 1.41 0.31 2.66 0.95t2.25 1.53 1.5 2.11v-4.22h3.84v11.66h-3.84q0-1.94-0.7-3.53-0.71-1.59-1.92-2.75-1.22-1.16-2.91-1.8t-3.63-0.64q-2.62 0-4.57 0.91-1.96 0.9-3.27 2.47-1.31 1.56-1.98 3.67-0.68 2.11-0.68 4.61t0.77 4.61 2.22 3.64 3.5 2.44q2.05 0.9 4.61 0.9 3.25 0 5.78-1.28t3.87-3.41zm39.79-6.84q0 3.41-1.08 6.19t-3.1 4.76q-2.01 1.99-4.82 3.11-2.82 1.13-6.29 1.13-3.4 0-6.21-1.13-2.82-1.12-4.83-3.11-2.02-1.98-3.1-4.76-1.07-2.78-1.07-6.19 0-3.31 1.07-6.17 1.08-2.86 3.1-4.88 2.01-2.01 4.83-3.15 2.81-1.14 6.21-1.14 3.47 0 6.29 1.14 2.81 1.14 4.82 3.15 2.02 2.02 3.1 4.88t1.08 6.17zm-4.29 0q0-2.5-0.73-4.61t-2.17-3.7q-1.44-1.6-3.49-2.5-2.04-0.91-4.61-0.91-2.56 0-4.61 0.91-2.04 0.9-3.45 2.5-1.4 1.59-2.14 3.7-0.73 2.11-0.73 4.61t0.73 4.61q0.74 2.11 2.14 3.64 1.41 1.53 3.45 2.41 2.05 0.87 4.61 0.87 2.57 0 4.61-0.87 2.05-0.88 3.49-2.41t2.17-3.64 0.73-4.61zm10.88 3.34v-18h4.28v18q0 3.91 1.7 6.05 1.71 2.14 5.49 2.14 2.37 0 4.28-1.09 1.91-1.1 3.25-2.92 1.34-1.83 2.05-4.19 0.7-2.36 0.7-4.92v-13.07h4.31v29.13h-4.31v-7.28q-3.06 8-11 8-10.75 0-10.75-11.85zm61-6.84v17.97h-4.31v-17.97q0-3.91-1.69-6.06-1.69-2.16-5.47-2.16-2.37 0-4.3 1.1-1.92 1.09-3.26 2.92-1.35 1.83-2.05 4.19-0.7 2.35-0.7 4.92v13.06h-4.28v-29.13h4.28v7.32q3.09-8 11.03-8 10.75 0 10.75 11.84zm33.19 7.91 3.59 0.78q-0.5 4.59-3.61 7.3-3.11 2.7-7.76 2.7-2.57 0-4.69-0.85-2.13-0.84-3.63-2.34t-2.33-3.61q-0.82-2.11-0.82-4.61v-14.78h-6.6v-3.66h6.6v-11.65h4.28v11.65h12.4v3.66h-12.4v14.78q0 1.6 0.51 3 0.52 1.41 1.44 2.47t2.24 1.67q1.31 0.61 3 0.61 3.18 0 5.32-1.98 2.14-1.99 2.46-5.14z"/>
</g>
</g>
<style>text {
  font-size: 64px;
  font-family: Arial Black;
  dominant-baseline: central;
  text-anchor: middle;
}</style>
</svg>
